<?xml version="1.0" encoding="utf-8"?>
<!-- Generator: Adobe Illustrator 16.0.0, SVG Export Plug-In . SVG Version: 6.00 Build 0)  -->
<!DOCTYPE svg PUBLIC "-//W3C//DTD SVG 1.1//EN" "http://www.w3.org/Graphics/SVG/1.1/DTD/svg11.dtd">
<svg version="1.1" id="Layer_1" xmlns="http://www.w3.org/2000/svg" xmlns:xlink="http://www.w3.org/1999/xlink" x="0px" y="0px"
	 width="94px" height="94px" viewBox="0 0 94 94" enable-background="new 0 0 94 94" xml:space="preserve">
<path fill="#FFFFFF" d="M94,86.806C94,90.779,90.779,94,86.806,94H7.194C3.221,94,0,90.779,0,86.806V7.194C0,3.221,3.221,0,7.194,0
	h79.612C90.779,0,94,3.221,94,7.194V86.806z"/>
<g>
	<g>
		<path fill="#D93A39" d="M66.849,44.785c0-2.381,0.208-6.076,0.625-11.08l0.179-2.145l-0.894-0.09
			c-1.371,5.064-2.562,9.085-3.574,12.063L51.301,78.471H39.417L26.907,43.534c-1.132-2.68-2.145-6.016-3.038-10.008l-0.536-2.055
			l-0.894,0.09c0.536,5.302,0.804,9.71,0.804,13.224v23.5c2.203,0.835,3.842,1.937,4.915,3.306l-0.894,6.88H9.751l-0.894-6.88
			c1.072-1.37,2.709-2.471,4.914-3.306V27.003c-2.443-0.894-4.141-1.995-5.093-3.306l0.894-6.88h20.373l13.045,36.01
			c1.667,3.932,2.739,7.536,3.217,10.812l0.268,1.519h1.251c0.237-3.633,1.309-7.744,3.216-12.331l12.42-36.01h20.016l0.894,6.88
			c-0.954,1.311-2.651,2.413-5.093,3.306v40.924c2.323,0.894,3.96,1.937,4.914,3.128L83.2,78.471H62.828l-0.894-7.327
			c0.953-1.19,2.592-2.234,4.915-3.127V44.785z"/>
	</g>
</g>
</svg>
